#!OML:ASF F:\VICON\USERDATA\INSTALL\rory3\rory3.ASF
:FULLY-SPECIFIED
:DEGREES
273
root -5.88536 17.4711 10.1298 -0.499787 134.919 0.600907
lowerback 11.9117 1.80738 -1.6183
upperback 1.48413 2.31029 0.411489
thorax -5.20026 1.21566 0.964345
lowerneck -16.9951 -8.14076 -12.3708
upperneck 29.3564 -9.96647 9.25731
head 14.0022 -4.18763 4.14586
rclavicle -1.54524e-015 1.32689e-014
rhumerus -34.307 -5.62953 -81.3139
rradius 37.8595
rwrist 3.81423
rhand -19.2351 7.10597
rfingers 7.12502
rthumb 7.07818 -22.7557
lclavicle -1.54524e-015 1.32689e-014
lhumerus -35.1796 10.0466 80.6064
lradius 34.5309
lwrist -5.4528
lhand -19.0729 24.1855
lfingers 7.12502
lthumb 7.23475 54.0418
rfemur -3.92337 -5.41101 19.3004
rtibia 34.4387
rfoot -23.5111 -1.07779
rtoes -11.9026
lfemur -8.83542 7.64176 -23.4788
ltibia 38.1918
lfoot -20.6676 -5.83942
ltoes -1.85615
274
root -5.83428 17.4548 10.1508 -0.745015 135.274 0.556413
lowerback 11.9095 1.81792 -1.76317
upperback 1.51125 2.30547 0.375274
thorax -5.1745 1.21632 1.00929
lowerneck -16.8926 -8.15084 -12.3029
upperneck 29.511 -10.0704 9.47591
head 14.0728 -4.18709 4.21609
rclavicle -4.52018e-014 8.10048e-015
rhumerus -34.4115 -5.97056 -81.3125
rradius 37.8005
rwrist 4.16674
rhand -19.1186 7.15945
rfingers 7.12502
rthumb 7.19063 -22.6984
lclavicle -4.52018e-014 8.10048e-015
lhumerus -35.1801 9.57918 80.7083
lradius 34.5095
lwrist -5.36828
lhand -19.7721 23.4563
lfingers 7.12502
lthumb 6.55979 53.3347
rfemur -3.97234 -5.82356 19.3396
rtibia 35.215
rfoot -23.6875 -0.627005
rtoes -10.4785
lfemur -8.1155 7.01008 -23.5141
ltibia 37.2828
lfoot -20.5804 -4.11346
ltoes -1.40785
275
root -5.7846 17.4486 10.17 -0.914786 135.61 0.607969
lowerback 11.9786 1.87042 -1.85817
upperback 1.4838 2.36223 0.396019
thorax -5.24829 1.24681 1.07233
lowerneck -16.7625 -8.19715 -12.2759
upperneck 29.7268 -10.1993 9.64719
head 14.1686 -4.20572 4.27262
rclavicle -5.94149e-014 1.73937e-015
rhumerus -34.554 -6.26523 -81.2038
rradius 37.6937
rwrist 4.41822
rhand -19.015 7.55713
rfingers 7.12502
rthumb 7.29063 -22.2973
lclavicle -5.94149e-014 1.73937e-015
lhumerus -35.2689 9.04719 80.8909
lradius 34.5769
lwrist -5.27086
lhand -20.3424 22.6424
lfingers 7.12502
lthumb 6.00925 52.5372
rfemur -4.04166 -6.30277 19.4284
rtibia 36.0518
rfoot -23.7125 -0.162596
rtoes -9.66285
lfemur -7.44338 6.58315 -23.4112
ltibia 36.4513
lfoot -20.5264 -3.50951
ltoes -0.047671
276
root -5.73505 17.4456 10.1882 -1.24623 135.935 0.36656
lowerback 11.9668 1.909 -2.18501
upperback 1.4668 2.37036 0.395697
thorax -5.27299 1.25757 1.25455
lowerneck -16.7604 -8.18707 -12.236
upperneck 30.0149 -10.1877 9.65598
head 14.2923 -4.18054 4.28638
rclavicle 2.20993e-014 1.63997e-014
rhumerus -34.6252 -6.53516 -81.0703
rradius 37.6111
rwrist 4.75045
rhand -18.7093 7.75104
rfingers 7.12502
rthumb 7.5857 -22.0929
lclavicle 2.20993e-014 1.63997e-014
lhumerus -35.4095 8.56068 81.1261
lradius 34.7628
lwrist -4.92513
lhand -19.8117 22.9578
lfingers 7.12502
lthumb 6.52158 52.8374
rfemur -4.22108 -6.85888 19.2666
rtibia 36.9913
rfoot -23.5148 0.0886071
rtoes -10.2985
lfemur -6.76032 6.15455 -23.5001
ltibia 35.7459
lfoot -20.4102 -3.91936
ltoes 3.8024
277
root -5.68536 17.4392 10.2101 -1.51018 136.303 0.12267
lowerback 11.8746 1.90741 -2.54756
upperback 1.46279 2.32252 0.388689
thorax -5.23796 1.24097 1.46199
lowerneck -16.7972 -8.15337 -12.1944
upperneck 30.2566 -10.14 9.66255
head 14.3991 -4.14166 4.30299
rclavicle 1.99064e-014 -3.97569e-016
rhumerus -34.6267 -7.00686 -80.9155
rradius 37.4713
rwrist 5.41175
rhand -18.4879 7.9846
rfingers 7.12502
rthumb 7.79941 -21.8515
lclavicle 1.99064e-014 -3.97569e-016
lhumerus -35.5356 8.09067 81.3476
lradius 34.9516
lwrist -4.57594
lhand -18.1159 23.889
lfingers 7.12502
lthumb 8.15846 53.7115
rfemur -4.56867 -7.26996 19.1648
rtibia 38.0633
rfoot -23.3005 0.170265
rtoes -11.0484
lfemur -6.20851 5.69529 -23.5454
ltibia 35.1454
lfoot -20.2779 -4.38106
ltoes 6.95626
278
root -5.63888 17.4299 10.2339 -1.71073 136.636 0.0178621
lowerback 11.9128 1.92711 -2.73816
upperback 1.4585 2.32099 0.340798
thorax -5.26907 1.24432 1.51802
lowerneck -16.7595 -8.15853 -12.1186
upperneck 30.3297 -10.1868 9.72182
head 14.4293 -4.1395 4.31143
rclavicle -8.36635e-014 6.36111e-015
rhumerus -34.587 -7.70366 -80.8136
rradius 37.2607
rwrist 6.02148
rhand -18.401 8.44748
rfingers 7.12502
rthumb 7.88332 -21.3855
lclavicle -8.36635e-014 6.36111e-015
lhumerus -35.5787 7.60774 81.45
lradius 35.0678
lwrist -4.44299
lhand -16.2501 24.4096
lfingers 7.12502
lthumb 9.95888 54.154
rfemur -4.97449 -7.59361 19.1557
rtibia 39.2641
rfoot -23.1417 0.431537
rtoes -11.8604
lfemur -5.72602 5.31342 -23.4399
ltibia 34.5799
lfoot -20.283 -4.40111
ltoes 7.00889
279
root -5.59503 17.4222 10.2568 -2.00568 137.035 -0.277741
lowerback 11.9995 1.9088 -3.08155
upperback 1.39688 2.24416 0.29027
thorax -5.38933 1.2146 1.6674
lowerneck -16.7104 -8.13697 -12.0991
upperneck 30.4808 -10.1758 9.78495
head 14.4881 -4.11567 4.34672
rclavicle 3.66199e-014 -2.28602e-015
rhumerus -34.6494 -8.12522 -80.7601
rradius 37.1837
rwrist 6.04496
rhand -18.5467 8.5271
rfingers 7.12502
rthumb 7.74267 -21.3111
lclavicle 3.66199e-014 -2.28602e-015
lhumerus -35.6416 7.19826 81.5306
lradius 35.0511
lwrist -4.19374
lhand -16.4172 24.1727
lfingers 7.12502
lthumb 9.79765 53.9248
rfemur -5.47498 -8.15186 18.8996
rtibia 40.5915
rfoot -22.888 1.16469
rtoes -12.1155
lfemur -5.29364 4.84761 -23.4826
ltibia 34.0394
lfoot -20.3133 -4.43712
ltoes 6.41468
280
root -5.55122 17.4174 10.2776 -2.36387 137.574 -0.673426
lowerback 11.9957 1.84046 -3.48352
upperback 1.40448 2.09918 0.228465
thorax -5.38313 1.15182 1.85355
lowerneck -16.6553 -8.10827 -12.1251
upperneck 30.5132 -10.1458 9.85456
head 14.493 -4.09397 4.39024
rclavicle 4.79754e-014 -1.59028e-014
rhumerus -34.6438 -8.4583 -80.7668
rradius 37.1828
rwrist 5.82766
rhand -18.9053 8.28481
rfingers 7.12502
rthumb 7.39655 -21.5659
lclavicle 4.79754e-014 -1.59028e-014
lhumerus -35.6053 7.09501 81.5544
lradius 34.9107
lwrist -4.47346
lhand -18.159 23.8485
lfingers 7.12502
lthumb 8.11684 53.6727
rfemur -6.01402 -8.98782 18.4684
rtibia 42.0263
rfoot -22.4977 2.18738
rtoes -11.9283
lfemur -4.93616 4.32119 -23.626
ltibia 33.5043
lfoot -20.5519 -4.46237
ltoes 4.01898
281
root -5.51017 17.4133 10.3043 -2.50199 138.107 -0.800213
lowerback 11.9428 1.77674 -3.60738
upperback 1.47382 2.00028 0.118581
thorax -5.27468 1.10426 1.82714
lowerneck -16.7862 -8.1342 -12.0091
upperneck 30.4896 -10.2384 9.9373
head 14.5227 -4.10589 4.38375
rclavicle -5.5933e-014 -1.2921e-015
rhumerus -34.5443 -9.10619 -80.8298
rradius 37.1934
rwrist 5.74871
rhand -19.0104 8.49604
rfingers 7.12502
rthumb 7.2951 -21.3582
lclavicle -5.5933e-014 -1.2921e-015
lhumerus -35.4008 6.78024 81.5236
lradius 34.7787
lwrist -4.61008
lhand -19.0416 23.8179
lfingers 7.12502
lthumb 7.26495 53.6732
rfemur -6.71847 -9.76221 18.2815
rtibia 43.5832
rfoot -21.9416 3.07817
rtoes -12.2184
lfemur -4.679 3.9326 -23.4978
ltibia 32.9803
lfoot -20.7279 -4.75044
ltoes 1.27938
